<svg xmlns="http://www.w3.org/2000/svg" viewBox="0 0 32 32" width="32" height="32">
  <!-- Favicon — vereinfacht, erkennbar bei 32x32 -->
  <circle cx="16" cy="16" r="14" fill="none" stroke="#0B1F4F" stroke-width="1.5"/>
  <circle cx="16" cy="16" r="9.5" fill="none" stroke="#B8924A" stroke-width="0.8" opacity="0.8"/>
  <circle cx="16" cy="3"  r="1.2" fill="#B8924A"/>
  <circle cx="16" cy="29" r="1.2" fill="#B8924A"/>
  <circle cx="3"  cy="16" r="1.2" fill="#B8924A"/>
  <circle cx="29" cy="16" r="1.2" fill="#B8924A"/>
  <line x1="16" y1="0.5" x2="16" y2="1.8" stroke="#0B1F4F" stroke-width="1.5" stroke-linecap="round"/>
  <line x1="16" y1="30.2" x2="16" y2="31.5" stroke="#0B1F4F" stroke-width="1.5" stroke-linecap="round"/>
  <line x1="0.5" y1="16" x2="1.8" y2="16" stroke="#0B1F4F" stroke-width="1.5" stroke-linecap="round"/>
  <line x1="30.2" y1="16" x2="31.5" y2="16" stroke="#0B1F4F" stroke-width="1.5" stroke-linecap="round"/>
  <path d="M 19 10 C 19 7 13 7 12 10 C 11 13 17 15 16.5 17" fill="none" stroke="#8C1A2A" stroke-width="1.5" stroke-linecap="round"/>
  <path d="M 17 15.5 C 18 17 21 18.5 20.5 21.5 C 20 24 14 24.5 13 22" fill="none" stroke="#8C1A2A" stroke-width="1.5" stroke-linecap="round"/>
</svg>
